<svg viewBox="0 0 20 20" xmlns="http://www.w3.org/2000/svg">
<path fill-rule="evenodd" clip-rule="evenodd" d="M12.646 16.854C12.6924 16.9006 12.7476 16.9375 12.8084 16.9627C12.8691 16.9879 12.9342 17.0009 13 17.0009C13.0658 17.0009 13.1309 16.9879 13.1916 16.9627C13.2524 16.9375 13.3076 16.9006 13.354 16.854L17.354 12.854C17.4479 12.7601 17.5006 12.6328 17.5006 12.5C17.5006 12.3672 17.4479 12.2399 17.354 12.146C17.2601 12.0521 17.1328 11.9994 17 11.9994C16.8672 11.9994 16.7399 12.0521 16.646 12.146L13.5 15.293V5.5C13.5 4.83696 13.2366 4.20107 12.7678 3.73223C12.2989 3.26339 11.663 3 11 3H3C2.86739 3 2.74021 3.05268 2.64645 3.14645C2.55268 3.24021 2.5 3.36739 2.5 3.5C2.5 3.63261 2.55268 3.75979 2.64645 3.85355C2.74021 3.94732 2.86739 4 3 4H11C11.3978 4 11.7794 4.15804 12.0607 4.43934C12.342 4.72064 12.5 5.10218 12.5 5.5V15.293L9.354 12.146C9.26011 12.0521 9.13278 11.9994 9 11.9994C8.86722 11.9994 8.73989 12.0521 8.646 12.146C8.55211 12.2399 8.49937 12.3672 8.49937 12.5C8.49937 12.6328 8.55211 12.7601 8.646 12.854L12.646 16.854Z"/>
<path d="M13 16.5009L12.9996 16.5004L8.99955 12.5004L8.646 12.854L8.99955 12.5004L8.99937 12.5L8.99955 12.4996L9 12.4994L9.00045 12.4996L12.1464 15.6465L13 16.5004L13.8536 15.6465L16.9996 12.4996L17 12.4994L17.0004 12.4996L17.0006 12.5L17.0004 12.5004L13.0004 16.5004L13 16.5009Z"/>
</svg>
