<svg width="20" height="20" viewBox="0 0 20 20" fill="none" xmlns="http://www.w3.org/2000/svg">
<g clip-path="url(#clip0_311_961)">
<path d="M18.572 3.083L10.676 10.12C10.4928 10.2833 10.2559 10.3736 10.0105 10.3736C9.76506 10.3736 9.5282 10.2833 9.345 10.12L1.416 3.087C1.60529 3.02927 1.8021 2.99995 2 3H18C18.1937 2.99983 18.3864 3.02778 18.572 3.083ZM19.928 4.468C19.975 4.638 20 4.816 20 5V15C20 15.5304 19.7893 16.0391 19.4142 16.4142C19.0391 16.7893 18.5304 17 18 17H2C1.46957 17 0.96086 16.7893 0.585788 16.4142C0.210715 16.0391 1.20033e-06 15.5304 1.20033e-06 15V5C-0.00019648 4.81957 0.0240233 4.63994 0.0720012 4.466L8.014 11.614C8.56352 12.1037 9.27392 12.3744 10.01 12.3744C10.7461 12.3744 11.4565 12.1037 12.006 11.614L19.928 4.468Z" fill="url(#paint0_linear_311_961)"/>
</g>
<defs>
<linearGradient id="paint0_linear_311_961" x1="-7.32143" y1="21.25" x2="14.9148" y2="-4.95246" gradientUnits="userSpaceOnUse">
<stop stop-color="#30B3ED"/>
<stop offset="0.277625" stop-color="#299EE2"/>
<stop offset="0.556873" stop-color="#258BD7"/>
<stop offset="0.78005" stop-color="#44A1E0"/>
<stop offset="1" stop-color="#51A8E3"/>
</linearGradient>
<clipPath id="clip0_311_961">
<rect width="20" height="20" fill="white"/>
</clipPath>
</defs>
</svg>
