<svg width="20" height="20" viewBox="0 0 20 20" fill="none" xmlns="http://www.w3.org/2000/svg">
<g clip-path="url(#clip0_302_1135)">
<path d="M19.1929 4.35518L12.6831 0.602997C12.6831 0.602997 11.6518 0 10.0064 0C8.29303 0 7.30029 0.621381 7.30029 0.621381L1.27032 4.07207L10.444 9.34461V20L16.4813 16.553C16.4813 16.553 17.5604 15.9573 18.3803 14.5418C19.1028 13.2953 19.1929 12.0893 19.1929 12.0893V4.35518ZM9.37584 6.09063C9.37584 6.09063 10.7216 5.84245 11.8595 6.49876C12.9975 7.15507 13.6685 7.54113 13.6685 7.54113C13.6685 7.54113 13.6704 8.45482 13.6704 9.82076C13.6704 10.9146 12.7438 12.0489 12.7438 12.0489L12.7456 8.03566L9.37584 6.09063ZM14.7109 14.8929L12.7456 16.0199V14.9628L14.2752 14.0877C15.7312 13.038 15.972 11.49 15.972 10.9532L15.9665 6.1991L11.7952 3.79814C11.7952 3.79814 11.1609 3.38266 10.0211 3.38266C8.88131 3.38266 8.25993 3.76689 8.25993 3.76689L6.79473 4.60888L5.87001 4.0739L7.89409 2.91755C7.89409 2.91755 8.68644 2.47817 10.0138 2.47817C11.2326 2.47817 12.1812 2.95432 12.1812 2.95432L16.8912 5.67515L16.8857 10.8631C16.9188 11.661 16.5475 13.6097 14.7109 14.8929Z" fill="#005F9E"/>
<path d="M0.807129 7.52275L7.23787 11.2124L7.23235 12.3118L3.57393 10.2142L1.27225 11.5231L7.22867 14.9554L7.23235 16.0143L0.851251 12.343C0.867796 12.7732 1.25754 14.0987 2.00393 15.1246C2.76135 16.1632 3.6254 16.6045 3.6254 16.6045L9.523 20V9.87407L0.812644 4.87177L0.807129 7.52275Z" fill="#005F9E"/>
</g>
<defs>
<clipPath id="clip0_302_1135">
<rect width="20" height="20" fill="white"/>
</clipPath>
</defs>
</svg>
